<svg xmlns="http://www.w3.org/2000/svg" viewBox="0 0 640 360" role="img" aria-labelledby="title desc">
  <title id="title">Marketplace modeling workshop board</title>
  <desc id="desc">A workshop board groups marketplace terms, contexts, and events.</desc>
  <rect width="640" height="360" rx="24" fill="#fffefa"/>
  <rect x="58" y="48" width="524" height="264" rx="22" fill="#f7f8f5" stroke="#dbe0dc" stroke-width="2"/>
  <path d="M218 74v238M408 74v238" stroke="#dbe0dc" stroke-width="2"/>
  <g font-family="Inter, Arial, sans-serif">
    <text x="104" y="94" font-size="17" font-weight="850" fill="#0d6766">Terms</text>
    <text x="260" y="94" font-size="17" font-weight="850" fill="#9c6416">Contexts</text>
    <text x="446" y="94" font-size="17" font-weight="850" fill="#14213d">Events</text>
  </g>
  <g fill="#e7f4f2" stroke="#0f8f8c" stroke-width="2">
    <rect x="86" y="122" width="104" height="38" rx="9"/>
    <rect x="86" y="176" width="104" height="38" rx="9"/>
    <rect x="86" y="230" width="104" height="38" rx="9"/>
  </g>
  <g fill="#fff2d8" stroke="#d89222" stroke-width="2">
    <rect x="250" y="122" width="124" height="38" rx="9"/>
    <rect x="250" y="176" width="124" height="38" rx="9"/>
    <rect x="250" y="230" width="124" height="38" rx="9"/>
  </g>
  <g fill="#fffefa" stroke="#14213d" stroke-width="2">
    <rect x="434" y="122" width="124" height="38" rx="9"/>
    <rect x="434" y="176" width="124" height="38" rx="9"/>
    <rect x="434" y="230" width="124" height="38" rx="9"/>
  </g>
  <g font-family="Inter, Arial, sans-serif" font-size="14" font-weight="800" fill="#14213d" text-anchor="middle">
    <text x="138" y="146">Order</text><text x="138" y="200">Payment</text><text x="138" y="254">Parcel</text>
    <text x="312" y="146">Ordering</text><text x="312" y="200">Payment</text><text x="312" y="254">Shipping</text>
    <text x="496" y="146">OrderPlaced</text><text x="496" y="200">Paid</text><text x="496" y="254">Shipped</text>
  </g>
</svg>
